<svg width="207" height="40" viewBox="0 0 207 40" fill="none" xmlns="http://www.w3.org/2000/svg">
<path d="M66.1389 12.6844C66.1065 12.7181 66.0676 12.7447 66.0245 12.7627C65.9814 12.7806 65.9352 12.7895 65.8885 12.7889H56.2772C56.2574 12.7866 56.2375 12.7889 56.2187 12.7955C56.2 12.802 56.183 12.8127 56.169 12.8268C56.155 12.8408 56.1443 12.8578 56.1377 12.8766C56.1311 12.8953 56.1289 12.9153 56.1311 12.935V17.4805C56.1289 17.5002 56.1311 17.5202 56.1377 17.539C56.1443 17.5577 56.155 17.5747 56.169 17.5888C56.183 17.6028 56.2 17.6135 56.2187 17.6201C56.2375 17.6266 56.2574 17.6289 56.2772 17.6267H62.5781C62.6247 17.6267 62.6708 17.6359 62.7138 17.6537C62.7568 17.6715 62.7959 17.6977 62.8289 17.7307C62.8618 17.7636 62.8879 17.8028 62.9058 17.8458C62.9236 17.8889 62.9328 17.9351 62.9328 17.9817V20.8287C62.9342 20.8745 62.9256 20.92 62.9076 20.9621C62.8896 21.0042 62.8626 21.0418 62.8284 21.0723C62.7961 21.106 62.7572 21.1326 62.7141 21.1505C62.671 21.1685 62.6247 21.1774 62.5781 21.1767H56.2772C56.2574 21.1745 56.2375 21.1768 56.2187 21.1833C56.2 21.1899 56.183 21.2006 56.169 21.2146C56.155 21.2287 56.1443 21.2457 56.1377 21.2645C56.1311 21.2832 56.1289 21.3032 56.1311 21.3229V26.0772C56.1289 26.0969 56.1311 26.1169 56.1377 26.1357C56.1443 26.1544 56.155 26.1714 56.169 26.1855C56.183 26.1995 56.2 26.2102 56.2187 26.2168C56.2375 26.2233 56.2574 26.2256 56.2772 26.2234H65.8885C65.9352 26.2227 65.9814 26.2316 66.0245 26.2496C66.0676 26.2675 66.1065 26.2942 66.1389 26.3278C66.173 26.3583 66.2 26.3959 66.218 26.438C66.2361 26.4801 66.2446 26.5257 66.2432 26.5714V29.4184C66.2432 29.5126 66.2058 29.6029 66.1393 29.6695C66.0728 29.736 65.9826 29.7734 65.8885 29.7734H52.3478C52.302 29.7749 52.2565 29.7663 52.2145 29.7483C52.1724 29.7302 52.1348 29.7032 52.1044 29.669C52.0708 29.6366 52.0442 29.5977 52.0262 29.5546C52.0083 29.5115 51.9994 29.4651 52 29.4184V9.59381C51.9994 9.54712 52.0083 9.50079 52.0262 9.45768C52.0442 9.41458 52.0708 9.37562 52.1044 9.34322C52.1348 9.30907 52.1724 9.28201 52.2145 9.26397C52.2565 9.24593 52.302 9.23734 52.3478 9.23881H65.8885C65.9826 9.23881 66.0728 9.27621 66.1393 9.34279C66.2058 9.40936 66.2432 9.49966 66.2432 9.59381V12.4408C66.2446 12.4866 66.2361 12.5321 66.218 12.5742C66.2 12.6163 66.173 12.6539 66.1389 12.6844Z" fill="#4BAE41"/>
<path d="M67.9796 29.6401C67.9559 29.5889 67.9478 29.5318 67.9565 29.4761C67.9652 29.4203 67.9902 29.3684 68.0283 29.3268L72.7436 22.3172C72.7633 22.2925 72.7741 22.2618 72.7741 22.2302C72.7741 22.1986 72.7633 22.1679 72.7436 22.1432L68.0283 15.1336C67.9916 15.0723 67.9701 15.003 67.9657 14.9317C67.9657 14.7716 68.0631 14.695 68.2578 14.695H71.9229C72.0063 14.6934 72.0886 14.7146 72.1609 14.7563C72.2332 14.798 72.2928 14.8586 72.3332 14.9317L74.9691 18.9481C75.0479 19.0688 75.1174 19.0688 75.1777 18.9481L77.8135 14.9317C77.854 14.8586 77.9135 14.798 77.9858 14.7563C78.0581 14.7146 78.1404 14.6934 78.2238 14.695H82.1463C82.2854 14.695 82.3758 14.7368 82.4105 14.8273C82.4295 14.8787 82.4343 14.9342 82.4245 14.988C82.4147 15.0419 82.3907 15.0922 82.3549 15.1336L77.6675 22.1432C77.6467 22.1993 77.6467 22.2611 77.6675 22.3172L82.3549 29.3268C82.3943 29.3891 82.4137 29.462 82.4105 29.5357C82.4105 29.6958 82.3271 29.7723 82.1463 29.7723H78.4603C78.3766 29.7755 78.2937 29.755 78.2211 29.7131C78.1485 29.6713 78.0892 29.6098 78.05 29.5357L75.4072 25.5192C75.3516 25.4009 75.2959 25.4009 75.2333 25.5192L72.5975 29.5357C72.5571 29.6087 72.4975 29.6693 72.4252 29.711C72.3529 29.7527 72.2706 29.7739 72.1872 29.7723H68.2856C68.2273 29.7822 68.1674 29.775 68.1131 29.7516C68.0587 29.7281 68.0124 29.6894 67.9796 29.6401Z" fill="#4BAE41"/>
<path d="M94.0196 15.1197C94.9421 15.5035 95.7461 16.1257 96.3495 16.9226C96.8971 17.661 97.19 18.5576 97.184 19.4772V29.4174C97.184 29.5115 97.1467 29.6018 97.0801 29.6684C97.0136 29.735 96.9234 29.7724 96.8293 29.7724H93.4007C93.354 29.7731 93.3077 29.7641 93.2647 29.7462C93.2216 29.7282 93.1827 29.7016 93.1503 29.668C93.0869 29.6 93.052 29.5103 93.0529 29.4174V28.4498C93.0548 28.4262 93.0498 28.4025 93.0388 28.3816C93.0277 28.3606 93.0109 28.3433 92.9903 28.3315C92.9903 28.3315 92.9138 28.3315 92.8721 28.3941C92.0515 29.4661 90.7347 30.0021 88.9219 30.0021C87.5997 30.0656 86.2959 29.6724 85.2289 28.8883C84.7543 28.4896 84.3807 27.984 84.139 27.4129C83.8972 26.8418 83.7941 26.2215 83.838 25.6028C83.8054 24.9388 83.9316 24.2766 84.2062 23.6712C84.4808 23.0659 84.8958 22.5349 85.4167 22.1224C86.7398 21.2137 88.3289 20.775 89.9303 20.8764H92.9208C92.9405 20.8786 92.9605 20.8763 92.9792 20.8697C92.9979 20.8632 93.0149 20.8525 93.029 20.8384C93.043 20.8244 93.0537 20.8074 93.0602 20.7886C93.0668 20.7699 93.0691 20.7499 93.0668 20.7302V20.0619C93.0834 19.7823 93.0391 19.5025 92.9371 19.2417C92.835 18.9809 92.6776 18.7454 92.4757 18.5514C91.9815 18.1544 91.355 17.9603 90.7231 18.0085C90.2007 17.9905 89.6821 18.103 89.214 18.3356C89.0285 18.4242 88.8635 18.5503 88.7294 18.7061C88.5953 18.8619 88.4951 19.0439 88.435 19.2405C88.4299 19.2852 88.4159 19.3284 88.3937 19.3676C88.3715 19.4067 88.3417 19.4409 88.306 19.4682C88.2702 19.4955 88.2294 19.5153 88.1858 19.5264C88.1423 19.5376 88.0969 19.5398 88.0525 19.5329L84.5056 19.0665C84.2761 19.0248 84.1649 18.9412 84.1857 18.802C84.2647 17.9733 84.6086 17.1921 85.1663 16.5745C85.7912 15.8765 86.5765 15.3413 87.4544 15.0153C88.4698 14.6325 89.5478 14.4436 90.6327 14.4584C91.7954 14.4403 92.949 14.6655 94.0196 15.1197ZM92.1697 26.2571C92.4454 26.0623 92.6699 25.8035 92.8237 25.5028C92.9775 25.2022 93.0562 24.8686 93.0529 24.5308V23.4658C93.0552 23.4461 93.0529 23.4261 93.0463 23.4074C93.0398 23.3886 93.0291 23.3716 93.0151 23.3575C93.001 23.3435 92.984 23.3328 92.9653 23.3262C92.9466 23.3197 92.9266 23.3174 92.9069 23.3196H90.8205C90.0918 23.2775 89.3667 23.4493 88.7341 23.8139C88.5014 23.9628 88.3107 24.169 88.1804 24.4127C88.0501 24.6565 87.9846 24.9296 87.9899 25.206C87.979 25.4428 88.0237 25.6788 88.1203 25.8952C88.2169 26.1115 88.3628 26.3023 88.5463 26.452C88.9771 26.7721 89.5058 26.9321 90.0416 26.9045C90.795 26.9269 91.5343 26.6966 92.1419 26.2502L92.1697 26.2571Z" fill="#4BAE41"/>
<path d="M120.335 15.8365C121.246 16.9123 121.707 18.2989 121.621 19.7067V29.452C121.621 29.5461 121.584 29.6364 121.517 29.703C121.451 29.7696 121.361 29.807 121.266 29.807H117.838C117.792 29.8084 117.747 29.7999 117.705 29.7818C117.662 29.7638 117.625 29.7367 117.594 29.7026C117.561 29.6702 117.534 29.6312 117.516 29.5881C117.498 29.545 117.489 29.4987 117.49 29.452V20.6186C117.528 19.928 117.307 19.2481 116.871 18.7113C116.666 18.4812 116.412 18.2994 116.128 18.179C115.845 18.0586 115.538 18.0027 115.23 18.0152C114.918 18.0048 114.608 18.0615 114.32 18.1816C114.032 18.3017 113.773 18.4824 113.561 18.7113C113.117 19.2341 112.889 19.9058 112.921 20.5908V29.4172C112.921 29.5113 112.883 29.6016 112.817 29.6682C112.75 29.7348 112.66 29.7722 112.566 29.7722H109.165C109.12 29.7736 109.074 29.7651 109.032 29.747C108.99 29.729 108.952 29.7019 108.922 29.6678C108.888 29.6354 108.862 29.5964 108.844 29.5533C108.826 29.5102 108.817 29.4639 108.818 29.4172V20.6186C108.849 19.9283 108.618 19.2516 108.171 18.7252C107.959 18.4955 107.701 18.3144 107.412 18.1942C107.124 18.0741 106.814 18.0178 106.502 18.0292C105.927 18.0124 105.366 18.2109 104.93 18.586C104.496 18.9916 104.23 19.5457 104.186 20.1383V29.4172C104.186 29.5113 104.148 29.6016 104.082 29.6682C104.015 29.7348 103.925 29.7722 103.831 29.7722H100.402C100.357 29.7736 100.311 29.7651 100.269 29.747C100.227 29.729 100.19 29.7019 100.159 29.6678C100.125 29.6354 100.099 29.5964 100.081 29.5533C100.063 29.5102 100.054 29.4639 100.055 29.4172V15.0499C100.054 15.0032 100.063 14.9569 100.081 14.9138C100.099 14.8707 100.125 14.8317 100.159 14.7993C100.19 14.7651 100.227 14.7381 100.269 14.7201C100.311 14.702 100.357 14.6934 100.402 14.6949H103.831C103.925 14.6949 104.015 14.7323 104.082 14.7989C104.148 14.8654 104.186 14.9557 104.186 15.0499V16.1915C104.184 16.2143 104.188 16.2373 104.198 16.258C104.208 16.2788 104.223 16.2966 104.241 16.3098C104.283 16.3098 104.325 16.3098 104.36 16.2472C104.772 15.6516 105.331 15.1736 105.984 14.86C106.636 14.5463 107.358 14.4079 108.08 14.4582C108.975 14.4382 109.86 14.6517 110.647 15.0777C111.373 15.4812 111.959 16.0951 112.33 16.8388C112.39 16.9502 112.46 16.9502 112.538 16.8388C112.924 16.0781 113.533 15.4538 114.284 15.0499C115.046 14.6469 115.898 14.4433 116.76 14.4582C117.419 14.4213 118.079 14.5251 118.695 14.7627C119.312 15.0003 119.87 15.3663 120.335 15.8365Z" fill="#4BAE41"/>
<path d="M129.105 29.2587C128.014 28.8228 127.074 28.0777 126.399 27.1148C125.755 26.1604 125.422 25.0296 125.447 23.878V23.2306C125.445 23.1844 125.452 23.1382 125.469 23.0951C125.486 23.052 125.511 23.0128 125.544 22.9801C125.577 22.9474 125.616 22.9218 125.659 22.905C125.702 22.8882 125.748 22.8806 125.794 22.8825H129.139C129.23 22.882 129.318 22.917 129.383 22.98C129.417 23.0124 129.443 23.0514 129.461 23.0945C129.479 23.1376 129.488 23.1839 129.487 23.2306V23.6691C129.491 24.0636 129.593 24.4509 129.782 24.7969C129.971 25.1429 130.242 25.4369 130.572 25.653C131.435 26.2314 132.463 26.5146 133.5 26.4604C134.326 26.5232 135.147 26.2887 135.816 25.7992C136.057 25.6019 136.25 25.3533 136.383 25.0715C136.515 24.7896 136.583 24.4817 136.581 24.1703C136.585 23.9505 136.545 23.7321 136.464 23.5278C136.382 23.3235 136.262 23.1373 136.108 22.98C135.74 22.6209 135.308 22.3329 134.835 22.1308C134.3 21.8871 133.444 21.553 132.269 21.1214C131.13 20.7346 130.02 20.2694 128.945 19.7293C128.051 19.2666 127.272 18.6102 126.664 17.8081C126.028 16.9376 125.702 15.8787 125.739 14.801C125.715 13.7043 126.03 12.6271 126.643 11.7173C127.275 10.8173 128.151 10.1169 129.167 9.69862C130.346 9.20962 131.613 8.97252 132.888 9.00253C134.253 8.97958 135.606 9.24772 136.859 9.78911C137.954 10.2625 138.897 11.0284 139.585 12.0027C140.246 12.9768 140.589 14.132 140.566 15.3091V15.7476C140.567 15.7943 140.558 15.8407 140.54 15.8838C140.522 15.9269 140.495 15.9658 140.462 15.9982C140.394 16.0617 140.304 16.0966 140.211 16.0957H136.845C136.752 16.0966 136.663 16.0617 136.595 15.9982C136.561 15.9658 136.535 15.9269 136.517 15.8838C136.499 15.8407 136.49 15.7943 136.491 15.7476V15.511C136.491 15.1093 136.4 14.7127 136.226 14.351C136.051 13.9893 135.797 13.6719 135.482 13.4227C134.692 12.8034 133.702 12.4941 132.7 12.5526C131.936 12.5095 131.179 12.7173 130.544 13.1443C130.292 13.3274 130.089 13.57 129.953 13.8505C129.818 14.131 129.753 14.4407 129.765 14.7522C129.751 15.2073 129.916 15.6499 130.224 15.9843C130.607 16.3737 131.067 16.6795 131.574 16.8823C132.172 17.1468 133.097 17.5018 134.355 17.9542C135.466 18.3449 136.555 18.7957 137.617 19.3046C138.448 19.7232 139.179 20.3169 139.759 21.0449C140.417 21.8977 140.754 22.9547 140.712 24.0311C140.745 24.8662 140.579 25.6971 140.227 26.4549C139.875 27.2128 139.347 27.8757 138.688 28.3886C137.096 29.5281 135.163 30.0904 133.208 29.9827C131.805 30.0211 130.41 29.7749 129.105 29.2587Z" fill="#2E3B44"/>
<path d="M156.797 23.1754C156.798 23.2245 156.789 23.2733 156.77 23.3185C156.75 23.3637 156.722 23.4043 156.685 23.4373C156.649 23.4704 156.606 23.4952 156.559 23.51C156.512 23.5249 156.463 23.5295 156.414 23.5234H147.373C147.255 23.5234 147.22 23.5722 147.255 23.6696C147.317 24.0732 147.427 24.4681 147.582 24.846C148.087 25.9365 149.121 26.4841 150.684 26.4888C151.264 26.4969 151.838 26.3621 152.355 26.0963C152.871 25.8305 153.315 25.4418 153.646 24.9643C153.66 24.9166 153.688 24.8739 153.726 24.8414C153.763 24.809 153.81 24.7882 153.859 24.7816C153.908 24.7749 153.958 24.7828 154.003 24.8041C154.048 24.8254 154.086 24.8593 154.112 24.9017L156.199 26.99C156.278 27.0572 156.33 27.1513 156.345 27.2545C156.322 27.3408 156.282 27.4215 156.226 27.4911C155.56 28.306 154.706 28.9463 153.737 29.3567C152.678 29.8028 151.54 30.0255 150.391 30.011C148.905 30.0486 147.439 29.6493 146.177 28.8624C145.015 28.1005 144.136 26.978 143.673 25.6674C143.222 24.4385 143.014 23.1334 143.061 21.825C143.044 20.8579 143.192 19.8949 143.499 18.978C143.901 17.6578 144.715 16.5014 145.822 15.6785C146.986 14.8446 148.39 14.4122 149.821 14.4464C151.549 14.3624 153.24 14.9683 154.523 16.131C155.749 17.351 156.511 18.961 156.678 20.6834C156.802 21.5079 156.842 22.3429 156.797 23.1754ZM147.422 19.7437C147.329 20.0513 147.259 20.3654 147.213 20.6834C147.211 20.7031 147.213 20.7231 147.22 20.7418C147.226 20.7606 147.237 20.7776 147.251 20.7917C147.265 20.8057 147.282 20.8164 147.301 20.823C147.32 20.8295 147.339 20.8318 147.359 20.8296H152.436C152.554 20.8296 152.596 20.7808 152.554 20.6834C152.436 20.1126 152.436 19.855 152.436 19.855C152.299 19.2975 151.972 18.8053 151.511 18.4629C151.037 18.1256 150.465 17.9543 149.884 17.9756C149.331 17.9309 148.78 18.0841 148.329 18.4079C147.878 18.7316 147.557 19.205 147.422 19.7437Z" fill="#2E3B44"/>
<path d="M159.448 29.6701C159.416 29.6374 159.39 29.5982 159.373 29.5551C159.357 29.5119 159.349 29.4658 159.351 29.4195V9.59491C159.349 9.54867 159.357 9.50252 159.373 9.45938C159.39 9.41624 159.416 9.37706 159.448 9.34432C159.481 9.31069 159.52 9.28407 159.563 9.26611C159.606 9.24814 159.652 9.23923 159.699 9.2399H163.127C163.222 9.2399 163.312 9.27731 163.378 9.34388C163.445 9.41046 163.482 9.50076 163.482 9.59491V29.4195C163.482 29.5137 163.445 29.604 163.378 29.6705C163.312 29.7371 163.222 29.7745 163.127 29.7745H159.699C159.652 29.7752 159.606 29.7663 159.563 29.7483C159.52 29.7304 159.481 29.7037 159.448 29.6701Z" fill="#2E3B44"/>
<path d="M179.942 23.1746C179.944 23.2234 179.936 23.2721 179.917 23.3173C179.899 23.3625 179.871 23.4032 179.835 23.4363C179.799 23.4695 179.757 23.4944 179.71 23.5093C179.664 23.5243 179.614 23.5288 179.566 23.5226H170.518C170.4 23.5226 170.358 23.5713 170.4 23.6688C170.46 24.0722 170.567 24.467 170.72 24.8452C171.225 25.9357 172.261 26.4833 173.828 26.488C174.407 26.495 174.979 26.3597 175.493 26.0939C176.007 25.8281 176.448 25.4399 176.777 24.9635C176.803 24.914 176.841 24.8716 176.887 24.84C176.933 24.8085 176.986 24.7887 177.042 24.7825C177.124 24.7941 177.198 24.8364 177.25 24.9009L179.337 26.9891C179.416 27.0564 179.468 27.1505 179.483 27.2537C179.464 27.3412 179.423 27.4226 179.364 27.4903C178.7 28.3068 177.845 28.9474 176.875 29.3558C175.819 29.801 174.682 30.0238 173.536 30.0102C172.034 30.0617 170.549 29.6643 169.273 28.8686C168.112 28.1066 167.232 26.9842 166.769 25.6735C166.316 24.4451 166.105 23.14 166.151 21.8311C166.133 20.864 166.281 19.9011 166.589 18.9841C167 17.6536 167.829 16.4915 168.953 15.6707C170.258 14.7937 171.812 14.365 173.381 14.4491C174.951 14.5332 176.45 15.1257 177.654 16.1371C178.877 17.3589 179.639 18.968 179.809 20.6895C179.934 21.5117 179.978 22.3439 179.942 23.1746ZM170.567 19.7429C170.477 20.0507 170.409 20.3648 170.365 20.6826C170.363 20.7023 170.365 20.7223 170.372 20.741C170.378 20.7598 170.389 20.7768 170.403 20.7908C170.417 20.8049 170.434 20.8156 170.453 20.8221C170.471 20.8287 170.491 20.831 170.511 20.8288H175.581C175.699 20.8288 175.734 20.78 175.699 20.6826C175.595 20.1118 175.553 19.8403 175.553 19.8612C175.41 19.3062 175.084 18.8157 174.628 18.469C174.154 18.1318 173.582 17.9605 173.001 17.9818C172.454 17.9449 171.911 18.1008 171.466 18.4225C171.022 18.7441 170.703 19.2112 170.567 19.7429Z" fill="#2E3B44"/>
<path d="M185.061 28.8343C183.915 28.0537 183.055 26.9195 182.613 25.6045C182.255 24.4799 182.086 23.3039 182.112 22.124C182.089 20.9694 182.258 19.819 182.613 18.7202C183.048 17.4312 183.906 16.3274 185.047 15.5878C186.257 14.8048 187.675 14.4046 189.115 14.4392C190.575 14.4078 192.01 14.8178 193.232 15.6156C194.337 16.3001 195.172 17.3449 195.597 18.574C195.723 18.914 195.801 19.2702 195.827 19.632V19.6877C195.83 19.7697 195.802 19.8499 195.747 19.911C195.693 19.9722 195.616 20.0095 195.534 20.0149L192.168 20.5091H192.078C191.995 20.5102 191.914 20.4812 191.85 20.4276C191.786 20.3739 191.744 20.2991 191.73 20.2167L191.64 19.7504C191.497 19.2347 191.173 18.7877 190.729 18.4904C190.24 18.1488 189.655 17.9731 189.06 17.9893C188.496 17.9711 187.942 18.1373 187.481 18.4626C187.043 18.7784 186.722 19.2316 186.57 19.7504C186.328 20.5269 186.22 21.339 186.25 22.1519C186.223 22.965 186.321 23.7774 186.542 24.5603C186.688 25.1124 187.01 25.6014 187.46 25.9525C187.923 26.2931 188.486 26.4695 189.06 26.4537C189.631 26.462 190.19 26.2917 190.659 25.9664C191.119 25.6419 191.455 25.1706 191.612 24.63C191.626 24.5727 191.626 24.5131 191.612 24.4559C191.624 24.427 191.624 24.3944 191.612 24.3654C191.612 24.1357 191.772 24.0383 192.022 24.0731L195.395 24.6021C195.477 24.6075 195.554 24.6448 195.608 24.706C195.663 24.7671 195.691 24.8473 195.687 24.9293C195.658 25.2266 195.6 25.5204 195.514 25.8063C195.147 27.0862 194.326 28.1879 193.205 28.9039C191.977 29.6604 190.557 30.047 189.115 30.0177C187.675 30.0489 186.259 29.6357 185.061 28.8343Z" fill="#2E3B44"/>
<path d="M206.774 17.9057C206.741 17.9394 206.703 17.966 206.659 17.9839C206.616 18.0019 206.57 18.0108 206.523 18.0101H203.742C203.637 18.0101 203.589 18.0589 203.589 18.1563V24.3724C203.549 24.8843 203.689 25.394 203.985 25.8133C204.15 25.9813 204.351 26.1103 204.572 26.191C204.794 26.2717 205.03 26.302 205.265 26.2797H206.231C206.277 26.2782 206.323 26.2868 206.365 26.3048C206.407 26.3229 206.444 26.3499 206.475 26.3841C206.508 26.4165 206.535 26.4554 206.553 26.4985C206.571 26.5416 206.58 26.588 206.579 26.6347V29.419C206.582 29.4671 206.575 29.5153 206.559 29.5608C206.543 29.6062 206.518 29.648 206.486 29.6836C206.453 29.7193 206.414 29.7481 206.37 29.7684C206.327 29.7887 206.279 29.8001 206.231 29.8019C205.411 29.8436 204.84 29.8576 204.472 29.8576C203.207 29.9452 201.944 29.6648 200.835 29.0501C200.032 28.5118 199.622 27.5001 199.604 26.0152V18.1563C199.606 18.1366 199.604 18.1166 199.597 18.0979C199.59 18.0791 199.58 18.0621 199.566 18.048C199.552 18.034 199.535 18.0233 199.516 18.0167C199.497 18.0102 199.477 18.0079 199.457 18.0101H197.788C197.742 18.0108 197.695 18.0019 197.652 17.9839C197.609 17.966 197.57 17.9394 197.538 17.9057C197.506 17.8738 197.481 17.8357 197.464 17.7939C197.448 17.752 197.44 17.7072 197.441 17.6621V15.0518C197.44 14.9588 197.475 14.8691 197.538 14.8012C197.57 14.7675 197.609 14.7409 197.652 14.723C197.695 14.705 197.742 14.6961 197.788 14.6968H199.457C199.477 14.699 199.497 14.6967 199.516 14.6901C199.535 14.6836 199.552 14.6729 199.566 14.6588C199.58 14.6448 199.59 14.6278 199.597 14.609C199.604 14.5903 199.606 14.5703 199.604 14.5506V11.0701C199.604 10.976 199.641 10.8857 199.707 10.8191C199.774 10.7525 199.864 10.7151 199.958 10.7151H203.206C203.253 10.7144 203.299 10.7234 203.342 10.7413C203.385 10.7593 203.424 10.7859 203.456 10.8195C203.489 10.8523 203.515 10.8915 203.531 10.9346C203.548 10.9777 203.556 11.0239 203.554 11.0701V14.5506C203.554 14.648 203.603 14.6968 203.707 14.6968H206.489C206.583 14.6968 206.673 14.7342 206.74 14.8007C206.806 14.8673 206.843 14.9576 206.843 15.0518V17.6621C206.849 17.7053 206.846 17.7493 206.834 17.7913C206.822 17.8332 206.802 17.8722 206.774 17.9057Z" fill="#2E3B44"/>
<path d="M20 40C31.0457 40 40 31.0457 40 20C40 8.95431 31.0457 0 20 0C8.95431 0 0 8.95431 0 20C0 31.0457 8.95431 40 20 40Z" fill="#3EB53E" fill-opacity="0.1"/>
<path d="M29.2333 29.2306H21.0281V13.846C21.0281 13.0299 21.3523 12.2473 21.9294 11.6703C22.5064 11.0932 23.289 10.769 24.1051 10.769H29.2333C29.5053 10.769 29.7662 10.8771 29.9585 11.0694C30.1509 11.2618 30.2589 11.5227 30.2589 11.7947V28.2049C30.2589 28.477 30.1509 28.7378 29.9585 28.9302C29.7662 29.1225 29.5053 29.2306 29.2333 29.2306ZM18.9769 29.2306H10.7717C10.4997 29.2306 10.2388 29.1225 10.0465 28.9302C9.85415 28.7378 9.74609 28.477 9.74609 28.2049V11.7947C9.74609 11.5227 9.85415 11.2618 10.0465 11.0694C10.2388 10.8771 10.4997 10.769 10.7717 10.769H15.8999C16.716 10.769 17.4986 11.0932 18.0757 11.6703C18.6527 12.2473 18.9769 13.0299 18.9769 13.846V29.2306ZM18.9769 29.2306H21.0281V31.2819H18.9769V29.2306Z" fill="url(#paint0_linear)"/>
<defs>
<linearGradient id="paint0_linear" x1="11.5015" y1="9.49976" x2="28.5015" y2="30.9998" gradientUnits="userSpaceOnUse">
<stop stop-color="#7AE07A"/>
<stop offset="1" stop-color="#3EB53E"/>
</linearGradient>
</defs>
</svg>
